<svg xmlns="http://www.w3.org/2000/svg" viewBox="0 0 407 607"><defs><style>.cls-1{fill:#d9d9d9;stroke:#000;stroke-linecap:round;stroke-linejoin:round;stroke-width:7px;}.cls-2{fill:#b3aa9e;}.cls-3{fill:#635b52;}.cls-4{fill:#7c7367;}.cls-5{fill:#9b9286;}</style></defs><g id="Capa_2" data-name="Capa 2"><g id="Capa_1-2" data-name="Capa 1"><rect class="cls-1" x="3.5" y="3.5" width="400" height="600" rx="5.67"/></g><g id="Capa_3" data-name="Capa 3"><g id="Capa_2-2" data-name="Capa 2"><g id="Capa_2-2-2" data-name="Capa 2-2"><path class="cls-2" d="M29,355.4c.66,1.73,2.47,4.5,6.06,10,7.32,11.19,11.07,16.87,15.33,20.68,4.78,4.28,9.16,6.51,13.9,8.92,9.48,4.8,11.72,3.64,21.75,8.91,6.86,3.61,10.29,5.41,12.84,7.84,3.16,3,5.59,6.56,10.34,7.49a12.43,12.43,0,0,0,4.63,0c15.65-2.54,22.46-5.35,22.46-5.35,9.11-3.75,18.84-5.77,28.17-8.91,14.83-5,25.84-8.12,39.93-12.12,26.42-7.52,42.65-12.13,64.89-15.69,14.87-2.38,26.93-3.4,43.5-10.34a100.82,100.82,0,0,0,19.25-10.34,91.13,91.13,0,0,0,26-28.17c3.92-6.75.91-3.71,12.48-34.58,4.07-10.86,6.17-15.86,6.42-23.89.23-7.67-1.38-13.19-3.57-20.68-3.54-12.12-6.67-22.82-16-31.37-5.46-5-10.66-7.05-18.9-10.34-11.71-4.68-18.47-5.17-31.37-7.85-28.86-6-29.87-10.75-50.63-12.83a116.5,116.5,0,0,0-27.1,0c-6.42.78-12.25,2.08-35.65,10-30.63,10.34-28.77,10.86-36.37,12.12-15.3,2.54-24.73,4.11-37.08,1.79-5.76-1.07-10.14-2.64-15.69-.72-5.78,2-8.82,6.42-14.62,15.69C76.36,247.4,75.12,252,67.15,263.06c-5.77,8-6.87,8.09-11.77,15.68a135.14,135.14,0,0,0-12.12,22.82c-3.57,8.75-3.64,11.74-7.85,19.26-3.8,6.79-4.67,6-6.41,10.33C24.33,342.8,28.39,353.84,29,355.4Z"/></g><g id="Capa_3-2" data-name="Capa 3"><path class="cls-3" d="M350.24,212.78a19.37,19.37,0,0,1,1.78,5,22.65,22.65,0,0,1,.36,2.85c.12,3.07-9.35,12.93-32.81,19.61a152.34,152.34,0,0,1-43.85,4.63c-7.87-.35-13.25-2.05-18.18-2.49a4.36,4.36,0,0,1-1.43-.36c-2.66-1.17-3.39-4.75-3.56-5.35-2.14-7.49-28.24-8.34-34.23-8.55-4.28-.16-8.92-.11-18.19,0-7.17.08-13.09.23-17.11.35,1.22.3,3.09.77,5.35,1.43,11.27,3.27,17.8,5.17,22.82,10.34,1.36,1.41,3.17,4.28,6.77,10,2.71,4.28,3,5.12,5.35,8.56a21.66,21.66,0,0,1,2.5,3.92c1.35,3.12,1.2,5.93,1.06,8.56a20.07,20.07,0,0,1-1.78,8.2,21.5,21.5,0,0,1-3.21,4.63c-4.63,5.65-6.77,6.57-11.41,12.12-2,2.42-1.86,2.56-3.2,3.93a30.55,30.55,0,0,1-8.92,6.06c-4.82,2.44-9,5.95-13.55,8.91-12.48,8.17-12.27,8.09-14.26,9.27-7.36,4.35-11.62,6.19-16,7.49a60.5,60.5,0,0,1-6.06,1.42c-6.38,1.17-9.88.76-22.47.36-14-.44-10.89,0-18.18-.36-4.43-.23-6.53-.46-10,0a42,42,0,0,0-12.48,3.93,57.69,57.69,0,0,0-12.12,7.48c-.92-.31-2.42-.82-4.28-1.42-10.15-3.27-15.22-4.91-20.32-6.06-3.07-.7-5.9-1.22-8.56-3.57a12.44,12.44,0,0,1-2.85-3.56c-2.43-4.58-1.05-9.13-1.86-9.27-.49-.09-.71,1.62-2.74,4.41a31.38,31.38,0,0,0-2.44,3.38,22.07,22.07,0,0,0-1.24,2.54c-4.79,11.88,0,24.25,0,24.25.68,1.75,2.5,4.52,6.07,10,7.32,11.19,11.07,16.87,15.33,20.68,4.78,4.28,9.16,6.51,13.9,8.92,9.48,4.8,11.71,3.64,21.75,8.91,6.86,3.6,10.29,5.41,12.84,7.84,3.16,3,5.58,6.56,10.34,7.49a12.43,12.43,0,0,0,4.63,0c15.65-2.54,22.46-5.35,22.46-5.35,9.11-3.75,18.83-5.77,28.17-8.91,14.83-5,25.84-8.12,39.93-12.12,26.42-7.52,42.65-12.13,64.89-15.69,14.87-2.38,26.92-3.4,43.5-10.34A101.17,101.17,0,0,0,332,356.47a91.13,91.13,0,0,0,26-28.17c3.92-6.75.91-3.71,12.48-34.58,4.07-10.86,6.17-15.86,6.42-23.89.25-8.25-1.62-14.43-3.57-20.68-3.34-10.72-6.26-22.15-16-31.37A45.09,45.09,0,0,0,352,213.5Z"/></g><g id="Capa_5" data-name="Capa 5"><path class="cls-4" d="M187.39,230.09c-2.26-.66-4.13-1.13-5.35-1.43,4-.12,9.94-.27,17.11-.35,9.27-.11,13.91-.16,18.19,0,6,.22,32.09,1.07,34.22,8.55.18.6.91,4.18,3.57,5.35a4.36,4.36,0,0,0,1.43.36c4.93.44,10.31,2.14,18.18,2.5a152.55,152.55,0,0,0,43.85-4.64l1.7-.55c3.68-.89,7.48-1.95,11.41-3.21,1.08-.35,2.15-.7,3.21-1.07a23.64,23.64,0,0,1-6.42,11.06c-1.76,1.66-3.89,3.67-7.13,4.27-1.24.24-1.82.11-6.78,0a45.26,45.26,0,0,0-5.7,0c0,.38,10.53,2.29,21.39,2.86,7.28.37,10.91.56,13.91.35,2.56-.18,2.87-.35,3.56,0,4.9,2.45-1.32,15.39.36,31,.11,1,.38,3.24-.72,3.92-2.62,1.64-9.4-7.89-12.47-6.41-2.44,1.17.48,7.84-.36,17.82-1,11.73-6.53,20.29-8.91,23.89a54.92,54.92,0,0,1-13.2,13.91,48,48,0,0,1-16.75,8.2c-7.44,1.88-9,.16-15.33,2.85-4.59,2-8.81,3.74-11.06,7.84a17.49,17.49,0,0,1-3.92,5.71,14.9,14.9,0,0,1-3.92,2.49,52.66,52.66,0,0,1-14.62,3.92,87.24,87.24,0,0,1-15.33.36c-7.06-.36-8.2-1.1-15-1.78a25.9,25.9,0,0,1-5-1.07c-1.57-.5-2.36-.76-2.49-1.07-1.14-2.61,11.51-12.07,13.55-16.05a25.65,25.65,0,0,0,1.07-2.85c.59-1.78.6-2.26.35-2.49-.39-.38-1.5-.21-2.14,0h0c-1.16.38-2.1.71-2.14.71a37.6,37.6,0,0,0-5.34,2.5c-4.13,2.34-7.49,4.87-10.7,6.77a50.21,50.21,0,0,1-12.84,5.35c-5.85,1.51-8.78,2.27-12.12,2.14-1.13-.05-2.66-.18-2.85.35-.33.92,3.77,2.39,7.84,6.42,2.45,2.43,4.83,4.77,5,8.2.2,4.19-3,7.3-3.57,7.85-1.34,1.3-2.52,1.8-5.7,3.2-5.46,2.41-8.19,3.61-9.63,4.28-4.74,2.22-8.44,4-12.12,7.49a87.39,87.39,0,0,0-6.06,6.77c-2,2.5-2.1,2.8-2.86,3.57-3,3-6.53,2.78-12.41,3.78-8.86,1.51-11.57,3.92-22.46,5.35a13.39,13.39,0,0,1-4.64,0c-4.75-.93-7.18-4.46-10.34-7.49-2.54-2.44-6-4.24-12.83-7.84-10-5.28-12.28-4.11-21.75-8.92-4.75-2.4-9.12-4.63-13.91-8.91-9-8.07-8.74-13.88-15.33-20.68-2.34-2.41-4.28-3.65-6.06-10h0c-2.79-9.91-1.69-20.07,0-24.25a23,23,0,0,1,1.23-2.55,33.5,33.5,0,0,1,2.44-3.38c2-2.79,2.25-4.5,2.74-4.41.81.15-.57,4.7,1.85,9.27a12.55,12.55,0,0,0,2.86,3.57c2.66,2.35,5.49,2.85,8.55,3.56a123.64,123.64,0,0,1,20.33,6.06c2.32,1,2.91,1.39,4.28,1.43,4.46.15,5.87-3.89,12.12-7.49a30.87,30.87,0,0,1,12.48-3.92,92.29,92.29,0,0,1,10,0c.55,0,2.14.13,4.31.17,1.85,0,3.21,0,3.67,0,3.16-.07,6.2.07,10.2.2,16.18.54,19.61.14,22.46-.36a46.48,46.48,0,0,0,4.95-1.09c6.42-1.8,11.53-4.82,16-7.49,2-1.17,1.79-1.09,14.27-9.27,4.52-3,8.72-6.46,13.54-8.91a30.42,30.42,0,0,0,8.92-6.06c1.34-1.37,1.2-1.51,3.21-3.92,4.63-5.55,6.77-6.47,11.41-12.12a21.88,21.88,0,0,0,3.2-4.64,20.24,20.24,0,0,0,1.79-8.2c.13-2.63.28-5.44-1.07-8.56a21.44,21.44,0,0,0-2.5-3.92c-2.39-3.44-2.64-4.28-5.35-8.56-3.6-5.7-5.41-8.55-6.77-10C205.19,235.26,198.66,233.37,187.39,230.09Z"/></g><g id="Capa_4" data-name="Capa 4"><path class="cls-5" d="M125.91,333.56c-6.1-.18-7.93-.24-10.21-.2-.47,0-1.83,0-3.67,0-1,0-2.25-.06-4.31-.17-4.42-.23-6.53-.46-10,0a42,42,0,0,0-12.48,3.93,57.94,57.94,0,0,0-12.12,7.48c-.92-.31-2.42-.82-4.28-1.42-10.14-3.27-15.22-4.91-20.32-6.06-3.07-.7-5.9-1.22-8.56-3.57A12.44,12.44,0,0,1,37.13,330c-2.43-4.58-1.05-9.12-1.86-9.27-.49-.09-.71,1.62-2.73,4.41a32.43,32.43,0,0,0-2.45,3.38,23.18,23.18,0,0,0-1.23,2.56c-4.8,11.87,0,24.24,0,24.24.68,1.75,2.5,4.52,6.06,10C42.25,376.49,46,382.16,50.25,386c4.79,4.28,9.17,6.51,13.91,8.92,9.48,4.8,11.71,3.64,21.75,8.91,6.86,3.6,10.29,5.41,12.83,7.84,3.17,3,5.59,6.56,10.34,7.49a14.48,14.48,0,0,0,4.64,0,101.93,101.93,0,0,0,15.11-2.77l2.14-4.63c8.5-18.42,12.75-27.62,13.2-28.53,4.51-9.25,5.33-10.2,6.77-14.62a57.75,57.75,0,0,0,2.85-15.68c.21-5.22.33-9.92-2.49-14.62a18.57,18.57,0,0,0-3.57-4.28h-2.5C141.13,334,137.65,333.92,125.91,333.56Z"/></g></g></g></g></svg>