<svg xmlns="http://www.w3.org/2000/svg" viewBox="0 0 407 607"><defs><style>.cls-1{fill:#d9d9d9;stroke:#000;stroke-linecap:round;stroke-linejoin:round;stroke-width:7px;}.cls-2{fill:#5c81ff;}.cls-3{fill:#b9b9b9;}.cls-4{fill:#505050;}</style></defs><g id="Capa_2" data-name="Capa 2"><g id="Capa_1-2" data-name="Capa 1"><rect class="cls-1" x="3.5" y="3.5" width="400" height="600" rx="5.67"/></g><g id="Capa_3" data-name="Capa 3"><g id="Capa_2-2" data-name="Capa 2"><path class="cls-2" d="M192.23,321.59l-16.56,56c-20.66,50.86-30.86,80.07-35.2,96.74a26.22,26.22,0,0,1-4.21,9.15c-11.54,15.84-40.46,16.33-59.39,10.39-21.61-6.79-42-25.68-46.09-46.74-10.06-51.59,79.12-94.85,93-96a40.67,40.67,0,0,0,10.62-2.21,44.86,44.86,0,0,0,13.7-8.09c10.44-8.47,18.3-19,22.37-24.86l4,1ZM144,374.1c-4.45-3.77-10.72-3.06-18.23-2.2a61.46,61.46,0,0,0-19.48,5.75c-6.71,3.23-11.61,7-21.4,14.6-2.33,1.79-5.23,4.1-7,5.63-11.07,9.38-29.14,24.68-27.72,42.75,1.43,18.22,21.78,28.47,22.63,28.89a42.32,42.32,0,0,0,34.4.78,19.05,19.05,0,0,0,7.79-5.73c3.56-4.66,3.48-9.93,3.7-13,.36-5.05,4.27-12,12.08-25.81,12.48-22.08,17.13-24.14,17.94-34.38C149,388.08,149.69,378.92,144,374.1Z"/><path class="cls-3" d="M189.38,320.85l2.43-3.51,21.62-30.12C283.15,109.1,280,107.71,273.68,105a6.37,6.37,0,0,0-4.63.77,7.45,7.45,0,0,0-3.09,4.64l-70.3,134.38a42.69,42.69,0,0,0-10,20.08c-1.53,8.41.65,12.87,0,22.4a60.71,60.71,0,0,1-6.94,23.94l-3.51,6"/><path class="cls-2" d="M232.56,317l4-1c4.06,5.88,11.92,16.39,22.37,24.86a45.72,45.72,0,0,0,13.71,8.09,40.53,40.53,0,0,0,10.61,2.22c13.85,1.16,103,44.42,93,96-4.1,21.07-24.48,40-46.09,46.75-18.93,5.94-47.85,5.44-59.38-10.4a26.23,26.23,0,0,1-4.2-9.14c-4.33-16.67-14.53-45.89-35.19-96.75l-16.6-56Zm25.71,74.4c.82,10.25,5.47,12.31,17.94,34.39,7.82,13.84,11.73,20.76,12.11,25.8.22,3,.14,8.31,3.7,13a18.86,18.86,0,0,0,7.79,5.74,42.29,42.29,0,0,0,34.4-.79c.85-.41,21.2-10.67,22.63-28.89s-16.65-33.37-27.72-42.73c-1.8-1.52-4.72-3.84-7-5.62-9.78-7.59-14.69-11.38-21.4-14.6a61.22,61.22,0,0,0-19.48-5.76c-7.53-.86-13.8-1.55-18.25,2.2-5.67,4.81-4.95,14-4.69,17.29Z"/><path class="cls-3" d="M217.6,320.86l-2.43-3.52-21.63-30.12C123.83,109.1,127,107.72,133.3,105a6.29,6.29,0,0,1,4.64.77,7.48,7.48,0,0,1,3.09,4.65l70.28,134.36a42.6,42.6,0,0,1,10,20.09c1.53,8.38-.64,12.87,0,22.39a60.63,60.63,0,0,0,7,23.95l3.51,6"/><circle class="cls-4" cx="203" cy="265.21" r="7.34"/></g></g></g></svg>