<svg xmlns="http://www.w3.org/2000/svg" viewBox="0 0 407 607"><defs><style>.cls-1{fill:#d9d9d9;stroke:#000;stroke-linejoin:round;stroke-width:7px;}.cls-1,.cls-4{stroke-linecap:round;}.cls-2{fill:#ffcc4d;stroke:#ffcc4d;}.cls-2,.cls-4{stroke-miterlimit:10;}.cls-3{fill:#f4900c;}.cls-4{fill:none;stroke:#664500;stroke-width:14px;}.cls-5{fill:#664500;}</style></defs><g id="Capa_2" data-name="Capa 2"><g id="Capa_1-2" data-name="Capa 1"><rect class="cls-1" x="3.5" y="3.5" width="400" height="600" rx="5.67"/></g><g id="Capa_8" data-name="Capa 8"><circle class="cls-2" cx="202.5" cy="265.5" r="145"/><path class="cls-3" d="M199.5,365.5l-52-12s-13-2-10-16,15-8,15-8l93,20s7,3,5-3-13-17-4-44,29-17,29-17,5,2,0,22,8,29,8,29,29,17,30,53-42,56-42,56-21,6-36,0l-22-5s-28-5-11-24c0,0-22-8-4-24C198.5,392.5,179.5,377.5,199.5,365.5Z"/><path class="cls-4" d="M165.5,309.5S198,290,229,291"/><path class="cls-4" d="M113,211s33-17,63-5"/><path class="cls-4" d="M209,173s29-18,65-3"/><ellipse class="cls-5" cx="148" cy="225" rx="17" ry="22"/><ellipse class="cls-5" cx="245" cy="216" rx="17" ry="22"/></g></g></svg>