<svg xmlns="http://www.w3.org/2000/svg" viewBox="0 0 407 607"><defs><style>.cls-1{fill:#d9d9d9;stroke:#000;stroke-width:7px;}.cls-1,.cls-4{stroke-linecap:round;stroke-linejoin:round;}.cls-2{fill:#fff;}.cls-3,.cls-4{fill:none;}.cls-3{stroke:#ec8479;stroke-miterlimit:10;stroke-width:12px;}.cls-4{stroke:#57e7ec;stroke-width:14px;}</style></defs><g id="Capa_2" data-name="Capa 2"><g id="Capa_1-2" data-name="Capa 1"><rect class="cls-1" x="3.5" y="3.5" width="400" height="600" rx="5.67"/></g><g id="Capa_2-2" data-name="Capa 2"><g id="Capa_2-3" data-name="Capa 2"><g id="Capa_2-2-2" data-name="Capa 2-2"><polyline class="cls-2" points="75.22 135.49 329.27 123.96 329.27 429.69 329.27 426.51 98.28 481.77 78.41 135.49"/><path d="M75.21,135.17c21.15-1.53,42.3-2.84,63.45-4.14l31.74-1.87,31.74-1.78q31.74-1.69,63.49-3.28t63.51-3l3-.13v3q0,19.11-.23,38.22l-.46,38.21-.53,38.22-.23,19.11-.2,19.11q-.36,38.22-.19,76.43l.09,19.11.12,19.11.39,38.21h-3.18l0-3.18,2,1.59-57.59,14.49-28.8,7.2-28.83,7.1L99.07,485.05l-3.91.95-.24-4Q92.31,438.69,90,395.39t-4.43-86.6l-2.07-43.31-2-43.33c-1.25-28.86-2.45-57.74-3.43-86.64a.32.32,0,0,1,.3-.33h0a.33.33,0,0,1,.33.3Q82.21,178.7,85.22,222l3,43.25,2.9,43.26q2.77,43.26,5.5,86.54t5,86.58l-4.15-3.08,115.62-27.1L242,444.7,271,438.07,328.89,425l2-.45,0,2,0,3.18h-3.18l.4-38.22.11-19.1.09-19.11q.12-38.22-.18-76.43l-.2-19.11-.23-19.11-.53-38.22-.47-38.21q-.17-19.11-.23-38.22l3,2.84q-31.75,1.53-63.52,2.78t-63.53,2.47l-31.77,1.11-31.77,1c-21.19.62-42.38,1.23-63.57,1.62a.32.32,0,0,1,0-.64Z"/><path d="M107.69,178.1a8.23,8.23,0,0,1-2,.16,14.34,14.34,0,0,1-2.07-.3l-.52-.11-.51-.14c-.35-.09-.69-.21-1-.33a18.23,18.23,0,0,1-2-.84c-.32-.17-.63-.34-.93-.52a3.68,3.68,0,0,1-.45-.28l-.45-.31c-.31-.22-.57-.46-.85-.7a7,7,0,0,1-.77-.77,11.16,11.16,0,0,1-2.78-8.3c.06-.4.1-.79.18-1.17a7.66,7.66,0,0,1,.33-1.13l.21-.55c.08-.17.18-.34.27-.51a5.07,5.07,0,0,1,.6-1,11.47,11.47,0,0,1,3.22-2.83,21,21,0,0,1,1.86-1,18.23,18.23,0,0,1,2-.84,14,14,0,0,1,2.11-.58,11.9,11.9,0,0,1,2.23-.25,11.51,11.51,0,0,1,4.6.9,10.17,10.17,0,0,1,2.19,1.21,9.36,9.36,0,0,1,1.93,1.84,9.89,9.89,0,0,1,2,4.78,12.2,12.2,0,0,1-.32,4.77,10.91,10.91,0,0,1-2.1,4,16,16,0,0,1-3.22,3A10.77,10.77,0,0,1,107.69,178.1Zm-.13-.54a4.41,4.41,0,0,0,2.71-2.29,7.39,7.39,0,0,0,.66-1.71,10.67,10.67,0,0,0,.3-1.78c.13-1.17.13-2.3.15-3.34a13.08,13.08,0,0,0-.24-2.93,7.69,7.69,0,0,0-.84-2.32,4.63,4.63,0,0,0-.72-.93,5.56,5.56,0,0,0-1-.84,11.13,11.13,0,0,0-2.78-1.16,14.66,14.66,0,0,0-3.35-.62,8.26,8.26,0,0,0-3.48.51,4.9,4.9,0,0,0-2.57,2.13,3.67,3.67,0,0,0,0,3.06A14.84,14.84,0,0,0,98,168.12c.65.9,1.3,1.8,1.93,2.74l.46.71c.16.24.31.48.46.72l1,1.53a15.79,15.79,0,0,0,1.05,1.52,7.5,7.5,0,0,0,1.26,1.32,5.64,5.64,0,0,0,.77.5,4.5,4.5,0,0,0,.84.35A3.74,3.74,0,0,0,107.56,177.56Z"/><path d="M124.65,320.58a4.7,4.7,0,0,1-1.19.53,6.76,6.76,0,0,1-1.27.23,12.4,12.4,0,0,1-2.58-.12,21.71,21.71,0,0,1-5-1.37,16.83,16.83,0,0,1-8-6.65,23,23,0,0,1-2.14-4.77c-.53-1.65-1-3.29-1.33-4.95a14.65,14.65,0,0,1-.4-5.19,5.87,5.87,0,0,1,3.37-4.61,9.39,9.39,0,0,1,2.78-.83,12.92,12.92,0,0,1,2.78-.1A18.18,18.18,0,0,1,117,294a20.48,20.48,0,0,1,4.8,2.66,16.42,16.42,0,0,1,3.82,4.11,19.21,19.21,0,0,1,2.27,5,16.29,16.29,0,0,1,.57,5.34,20.21,20.21,0,0,1-1,5.16,13.2,13.2,0,0,1-1,2.37A5.84,5.84,0,0,1,124.65,320.58Zm-.26-.4a3.89,3.89,0,0,0,1.35-1.82,6.56,6.56,0,0,0,.4-2.28,10.64,10.64,0,0,0-.25-2.32,17.35,17.35,0,0,0-.64-2.24,40.71,40.71,0,0,0-1.77-4.13,22.91,22.91,0,0,0-2.15-3.72c-.21-.28-.4-.56-.62-.84L120,302l-.34-.39-.37-.36a8.27,8.27,0,0,0-.74-.71,18.39,18.39,0,0,0-3.52-2.43,20.6,20.6,0,0,0-4-1.59,9.44,9.44,0,0,0-4.08-.4,4.17,4.17,0,0,0-.91.28,3,3,0,0,0-.4.21c-.12.09-.25.18-.36.28a3.48,3.48,0,0,0-1,1.7,8.36,8.36,0,0,0,.32,4.46,15.44,15.44,0,0,0,2.22,4.16,38.77,38.77,0,0,0,3,3.55c1,1.09,2.06,2.16,3.13,3.23s2.13,2.17,3.26,3.24a21.45,21.45,0,0,0,1.78,1.53,10.56,10.56,0,0,0,2,1.25,6.26,6.26,0,0,0,2.23.63A3.47,3.47,0,0,0,124.39,320.18Z"/><path d="M135.81,443.73a15.76,15.76,0,0,1-4,3.25,16.48,16.48,0,0,1-5,1.94,12.21,12.21,0,0,1-5.51-.12,11.33,11.33,0,0,1-5-2.71c-.33-.35-.66-.7-1-1.06a11.83,11.83,0,0,1-1.93-3.71,17.78,17.78,0,0,1,2.34-15.19,15.15,15.15,0,0,1,3.84-3.86,13.69,13.69,0,0,1,5.17-2.18l.72-.13c.24,0,.49,0,.73-.06l.74,0,.75,0a3.83,3.83,0,0,1,.76.05l.75.13a9.57,9.57,0,0,1,1.49.38,11.87,11.87,0,0,1,4.9,3.33,14.85,14.85,0,0,1,2.88,4.86,14.31,14.31,0,0,1,.85,5.43,16.79,16.79,0,0,1-1.05,5.24A14.64,14.64,0,0,1,135.81,443.73Zm-.31-.25a8.13,8.13,0,0,0,1.83-4.43,10,10,0,0,0,0-2.38,13.2,13.2,0,0,0-.49-2.31,17,17,0,0,0-.8-2.16c-.28-.7-.62-1.37-1-2a14.83,14.83,0,0,0-2.49-3.51,9.8,9.8,0,0,0-3.24-2.31,8.4,8.4,0,0,0-3.91-.52,12.88,12.88,0,0,0-4.15,1.22,15.23,15.23,0,0,0-3.8,2.52,10.79,10.79,0,0,0-2.72,3.79A9.92,9.92,0,0,0,114,436a9.63,9.63,0,0,0,1.47,4.41,9.52,9.52,0,0,0,1.4,1.75c.25.27.54.5.8.74s.58.42.86.64a15.49,15.49,0,0,0,3.83,1.88,21.17,21.17,0,0,0,4.38,1,12.46,12.46,0,0,0,4.71-.33,8.33,8.33,0,0,0,4.07-2.6Z"/></g><g id="Capa_3" data-name="Capa 3"><line class="cls-3" x1="134.31" y1="132.81" x2="158.85" y2="467.28"/></g><g id="Capa_4" data-name="Capa 4"><line class="cls-4" x1="158.91" y1="167.89" x2="299.25" y2="157.95"/><line class="cls-4" x1="165.27" y1="190.16" x2="309.59" y2="177.83"/><line class="cls-4" x1="176.8" y1="237.07" x2="303.63" y2="224.74"/><line class="cls-4" x1="181.97" y1="278.02" x2="257.91" y2="266.89"/><line class="cls-4" x1="181.97" y1="307.84" x2="309.59" y2="291.14"/><line class="cls-4" x1="181.97" y1="358.33" x2="314.76" y2="337.65"/><line class="cls-4" x1="190.32" y1="389.34" x2="257.91" y2="376.61"/><line class="cls-4" x1="181.97" y1="431.88" x2="314.76" y2="404.05"/></g></g></g></g></svg>