<svg xmlns="http://www.w3.org/2000/svg" viewBox="0 0 407 607"><defs><style>.cls-1,.cls-4{fill:#fff;}.cls-1,.cls-2{stroke:#000;stroke-linecap:round;stroke-linejoin:round;}.cls-1{stroke-width:7px;}.cls-2{stroke-width:3px;}.cls-3{font-size:48px;font-family:NotoSans-Bold, Noto Sans;font-weight:700;}</style></defs><g id="Capa_2" data-name="Capa 2"><g id="Capa_1-2" data-name="Capa 1"><rect class="cls-1" x="3.5" y="3.5" width="400" height="600" rx="5.67"/></g><g id="Capa_2-2" data-name="Capa 2"><path class="cls-2" d="M109,378l-5-4s-2-1,0-7,7-26,7-26,0-2,3-3,12-8,12-8a13.83,13.83,0,0,0,2-7V309s0-9,6-14c0,0-11-10-17-35,0,0-2-7,2-22a19.33,19.33,0,0,1,18-15s11-1,18,7-3,10-3,10-2,2-8-3-10,0-10,0-4,2-5,16,13,33,14,33,9-5,32-2,32,3,32,3,19,2,29,5c0,0,12,1,26-14,0,0-1-1,6-2l9-11s1-2,2,0,1,2,2,11a22.4,22.4,0,0,1,9,9c3,6,6,7,6,7s2,4-1,7-2,3-2,3-2,2-12,1-12,21-12,21l1,17s-1,5,7,17l17,17h5s5,0,4,7H288l-31-24s-3-2-4-8-11-8-11-8-9-1-13,6-14,27-14,27,10-1,4,8H207s-2-7,4-42c0,0-11-3-19,0s-11,3-11,3-9,0-11-1c0,0-2,11-13,21l8,13s9-2,8,7H160l-15-17s-4-4-1-10,0-14,0-14a186.26,186.26,0,0,1-25,10l-7,15S115,377,109,378Z"/></g><g id="Capa_3" data-name="Capa 3"><text class="cls-3" transform="translate(153.96 70.5)">Sala<tspan class="cls-4"><tspan x="20.16" y="252.6">de</tspan></tspan><tspan x="-30.34" y="505.2">Juegos</tspan></text></g></g></svg>