<svg xmlns="http://www.w3.org/2000/svg" viewBox="0 0 1024 1024"><defs><style>.cls-1{fill:#5c81ff;}.cls-2{fill:#b9b9b9;}.cls-3{fill:#505050;}</style></defs><g id="Capa_2" data-name="Capa 2"><path class="cls-1" d="M462.19,517.3,426.65,637.55c-44.35,109.16-66.24,171.86-75.54,207.64a56.28,56.28,0,0,1-9.05,19.63c-24.77,34-86.84,35.06-127.45,22.31C168.22,872.56,124.5,832,115.68,786.8,94.09,676.08,285.5,583.23,315.22,580.74A86.79,86.79,0,0,0,338,576c9.41-3.33,18.27-8.32,29.42-17.37,22.4-18.18,39.27-40.74,48-53.35l8.57,2.21ZM358.72,630c-9.56-8.1-23-6.57-39.12-4.73a132,132,0,0,0-41.82,12.36c-14.4,6.92-24.91,15.06-45.93,31.33-5,3.84-11.21,8.8-15.09,12.08C193,701.17,154.23,734,157.28,772.79c3.07,39.1,46.73,61.11,48.56,62,29.22,14.22,58.86,8.28,73.83,1.69,10.34-4.55,14.95-10,16.73-12.31,7.63-10,7.46-21.3,7.93-27.84.78-10.83,9.17-25.68,25.94-55.38,26.78-47.39,36.76-51.81,38.5-73.8C369.33,660,370.89,640.35,358.72,630Z"/><path class="cls-2" d="M456.07,515.72l5.21-7.54,46.41-64.65C657.32,61.24,650.54,58.27,637,52.33c-1.13-.49-6-.77-9.94,1.66s-5.7,6.51-6.63,9.95L469.56,352.36c-8,9.23-18,23.72-21.55,43.1-3.28,18.05,1.39,27.63,0,48.07-.84,12.42-4,30.18-14.91,51.39l-7.53,12.95"/><path class="cls-1" d="M548.75,507.47l8.57-2.21c8.7,12.61,25.57,35.17,48,53.35,11.16,9,20,14,29.43,17.37a86.82,86.82,0,0,0,22.77,4.77c29.73,2.49,221.14,95.34,199.54,206.06-8.81,45.21-52.53,85.76-98.92,100.33-40.62,12.75-102.69,11.69-127.45-22.31a56.28,56.28,0,0,1-9-19.63c-9.3-35.78-31.19-98.48-75.54-207.64L510.52,517.31Zm55.19,159.69c1.74,22,11.72,26.41,38.49,73.81,16.78,29.69,25.17,44.54,26,55.37.46,6.54.3,17.84,7.93,27.84,1.78,2.34,6.39,7.76,16.73,12.31,15,6.59,44.61,12.53,73.83-1.69,1.82-.89,45.49-22.9,48.56-62,3.05-38.82-35.73-71.62-59.49-91.71-3.87-3.28-10.12-8.24-15.08-12.08-21-16.27-31.53-24.41-45.94-31.33a131.89,131.89,0,0,0-41.81-12.36C637,623.48,623.54,622,614,630.05,601.82,640.36,603.38,660.05,603.94,667.16Z"/><path class="cls-2" d="M516.64,515.74l-5.21-7.55L465,443.54C315.39,61.25,322.17,58.28,335.72,52.35c1.14-.5,6-.78,9.95,1.65s5.69,6.51,6.63,10L503.14,352.37c8,9.24,18,23.72,21.55,43.1,3.29,18-1.38,27.63,0,48.07.84,12.42,4,30.18,14.92,51.39l7.53,12.95"/><circle class="cls-3" cx="485.31" cy="396.29" r="15.75"/></g></svg>