<svg xmlns="http://www.w3.org/2000/svg" viewBox="0 0 646.94 918.09"><defs><style>.cls-1{fill:#fff;}.cls-2{fill:#ec8479;stroke:#ec8479;stroke-miterlimit:10;stroke-width:12px;}.cls-3{fill:#57e7ec;stroke:#57e7ec;stroke-linecap:round;stroke-linejoin:round;stroke-width:14px;}</style></defs><g id="Capa_2" data-name="Capa 2"><g id="Capa_2-2" data-name="Capa 2"><polyline class="cls-1" points="0.78 36.45 639.78 7.45 639.78 776.45 639.78 768.45 58.78 907.45 8.78 36.45"/><path d="M.74,35.65c53.19-3.85,106.4-7.15,159.61-10.42l79.82-4.71L320,16.06q79.85-4.3,159.7-8.27T639.45.32L646.94,0l0,7.45q-.1,48.06-.59,96.13l-1.16,96.12-1.34,96.13-.58,48.06-.5,48.06q-.88,96.14-.47,192.25l.23,48.07.29,48.06,1,96.12h-8l-.09-8,5,4L495.89,808.89,423.44,827l-72.51,17.87L60.75,915.69l-9.82,2.4-.61-10.15Q43.77,799.09,37.93,690.18T26.78,472.35L21.56,363.42l-4.91-109C13.5,181.83,10.48,109.18,8,36.5a.8.8,0,0,1,.77-.83.81.81,0,0,1,.83.74q8.75,108.72,16.33,217.53l7.59,108.8,7.28,108.81q7,108.82,13.84,217.67Q61.25,798.08,67.24,907l-10.43-7.76,290.82-68.16,72.74-16.87,72.8-16.67,145.66-33,5.08-1.15-.06,5.11-.09,8h-8l1-96.12.29-48.06.23-48.07q.27-96.12-.47-192.25l-.5-48.06-.58-48.06-1.34-96.13-1.16-96.12q-.43-48.06-.59-96.13l7.46,7.14q-79.86,3.84-159.76,7T320.55,27.84l-79.92,2.79-79.92,2.54C107.42,34.74,54.13,36.27.82,37.25a.8.8,0,0,1-.08-1.6Z"/><path d="M82.44,143.63a20.44,20.44,0,0,1-5.13.39,34.88,34.88,0,0,1-5.2-.76L70.8,143c-.44-.1-.86-.24-1.3-.36-.88-.23-1.73-.52-2.6-.82a43.43,43.43,0,0,1-5-2.13c-.81-.41-1.6-.84-2.36-1.3-.38-.23-.73-.41-1.11-.69l-1.14-.8c-.77-.54-1.44-1.15-2.15-1.75s-1.32-1.27-1.92-1.95a28,28,0,0,1-7-20.86c.14-1,.25-2,.46-2.94a19.43,19.43,0,0,1,.82-2.85l.52-1.38c.21-.44.46-.87.68-1.3a14.39,14.39,0,0,1,1.52-2.43,28.9,28.9,0,0,1,8.11-7.11,51.22,51.22,0,0,1,4.67-2.55,44,44,0,0,1,5-2.1,35,35,0,0,1,5.31-1.47,29.75,29.75,0,0,1,5.61-.62,29,29,0,0,1,11.58,2.25A26.61,26.61,0,0,1,96,92.88a23.23,23.23,0,0,1,4.86,4.65,24.84,24.84,0,0,1,5,12,30.85,30.85,0,0,1-.8,12,27.6,27.6,0,0,1-5.28,10.08,40.62,40.62,0,0,1-8.1,7.46A27.35,27.35,0,0,1,82.44,143.63Zm-.32-1.36a11.22,11.22,0,0,0,6.82-5.76,18.08,18.08,0,0,0,1.64-4.3,27.66,27.66,0,0,0,.76-4.47c.32-2.95.34-5.79.37-8.42a33.12,33.12,0,0,0-.59-7.37A19.32,19.32,0,0,0,89,106.13a12,12,0,0,0-1.81-2.36,12.94,12.94,0,0,0-2.58-2.09,27.7,27.7,0,0,0-7-2.94,36.41,36.41,0,0,0-8.42-1.54,20.53,20.53,0,0,0-8.75,1.27,12.46,12.46,0,0,0-6.48,5.37,9.2,9.2,0,0,0-.09,7.68,35.82,35.82,0,0,0,4.26,7c1.61,2.26,3.26,4.53,4.83,6.89.4.6.8,1.18,1.18,1.79s.78,1.21,1.15,1.81l2.46,3.86a41.56,41.56,0,0,0,2.63,3.81A19.48,19.48,0,0,0,73.57,140a12.64,12.64,0,0,0,1.92,1.25,10.82,10.82,0,0,0,2.11.88A9.47,9.47,0,0,0,82.12,142.27Z"/><path d="M125.11,502a11.74,11.74,0,0,1-3,1.34,16.42,16.42,0,0,1-3.19.57,30,30,0,0,1-6.49-.29,54.35,54.35,0,0,1-12.7-3.44,42.36,42.36,0,0,1-20-16.73,57,57,0,0,1-5.38-12C73,467.3,71.9,463.18,71,459s-1.65-8.45-1-13.05a14.68,14.68,0,0,1,8.46-11.6,23.85,23.85,0,0,1,7-2.09,32.57,32.57,0,0,1,7-.25,45.25,45.25,0,0,1,13.29,3.2,51.31,51.31,0,0,1,12.08,6.67,40.86,40.86,0,0,1,9.6,10.35,43.37,43.37,0,0,1,3.32,6.09,45.44,45.44,0,0,1,2.4,6.41,41,41,0,0,1,1.44,13.42,51.54,51.54,0,0,1-2.48,13,32.58,32.58,0,0,1-2.62,5.95A14.43,14.43,0,0,1,125.11,502Zm-.66-1a9.73,9.73,0,0,0,3.4-4.57,16.74,16.74,0,0,0,1-5.75,26.66,26.66,0,0,0-.64-5.84,41.52,41.52,0,0,0-1.61-5.62,106.17,106.17,0,0,0-4.43-10.4,58.72,58.72,0,0,0-5.42-9.34c-.52-.72-1-1.42-1.57-2.12s-1.11-1.35-1.68-2l-.86-1-.91-.91c-.6-.61-1.22-1.21-1.88-1.78a46,46,0,0,0-8.84-6.11,52,52,0,0,0-10.14-4c-3.46-.95-7-1.58-10.27-1a10.59,10.59,0,0,0-2.28.69,8.55,8.55,0,0,0-1,.54,8.7,8.7,0,0,0-.92.71,8.58,8.58,0,0,0-2.5,4.26A20.72,20.72,0,0,0,74.7,458a38.34,38.34,0,0,0,5.57,10.44,100.83,100.83,0,0,0,7.47,8.95c2.55,2.74,5.19,5.42,7.88,8.11s5.36,5.46,8.21,8.16a53.24,53.24,0,0,0,4.47,3.85,27.62,27.62,0,0,0,5,3.14,15.56,15.56,0,0,0,5.62,1.58A8.68,8.68,0,0,0,124.45,501Z"/><path d="M153.16,811.78a39.47,39.47,0,0,1-10,8.15,40.69,40.69,0,0,1-12.5,4.89,31,31,0,0,1-13.87-.3,28.48,28.48,0,0,1-12.49-6.82c-.84-.87-1.66-1.76-2.45-2.65A30.1,30.1,0,0,1,97,805.7a44.78,44.78,0,0,1,5.9-38.21,38,38,0,0,1,9.65-9.7,34.48,34.48,0,0,1,13-5.48l1.81-.33c.61-.08,1.23-.11,1.85-.16l1.86-.13,1.89.07c.63,0,1.26,0,1.89.13l1.9.32a22.54,22.54,0,0,1,3.74.95,29.87,29.87,0,0,1,12.33,8.37,34.52,34.52,0,0,1,4.25,5.84,36.51,36.51,0,0,1,3,6.38,36,36,0,0,1,2.12,13.66,41.71,41.71,0,0,1-2.64,13.18A36.9,36.9,0,0,1,153.16,811.78Zm-.76-.65A20.48,20.48,0,0,0,157,800a25.7,25.7,0,0,0-.1-6,34.08,34.08,0,0,0-1.24-5.79,45.09,45.09,0,0,0-2-5.44c-.72-1.76-1.56-3.46-2.43-5.1a37.18,37.18,0,0,0-6.25-8.83,24.84,24.84,0,0,0-8.15-5.82,21,21,0,0,0-9.85-1.31,33,33,0,0,0-10.42,3.06,38.4,38.4,0,0,0-9.56,6.34,27.35,27.35,0,0,0-6.85,9.55,24.82,24.82,0,0,0-1.88,11.72,24.13,24.13,0,0,0,3.7,11.09,23.37,23.37,0,0,0,3.52,4.4c.63.67,1.34,1.26,2,1.85s1.47,1.06,2.16,1.62a39,39,0,0,0,9.65,4.72,51.46,51.46,0,0,0,11,2.44,31,31,0,0,0,11.86-.83A21,21,0,0,0,152.4,811.13Z"/></g><g id="Capa_3" data-name="Capa 3"><line class="cls-2" x1="149.41" y1="29.71" x2="211.12" y2="871.01"/></g><g id="Capa_4" data-name="Capa 4"><line class="cls-3" x1="211.28" y1="117.95" x2="564.28" y2="92.95"/><line class="cls-3" x1="227.28" y1="173.95" x2="590.28" y2="142.95"/><line class="cls-3" x1="256.28" y1="291.95" x2="575.28" y2="260.95"/><line class="cls-3" x1="269.28" y1="394.95" x2="460.28" y2="366.95"/><line class="cls-3" x1="269.28" y1="469.95" x2="590.28" y2="427.95"/><line class="cls-3" x1="269.28" y1="596.95" x2="603.28" y2="544.95"/><line class="cls-3" x1="290.28" y1="674.95" x2="460.28" y2="642.95"/><line class="cls-3" x1="269.28" y1="781.95" x2="603.28" y2="711.95"/></g></g></svg>