<svg xmlns="http://www.w3.org/2000/svg" viewBox="0 0 982.45 654.86"><defs><style>.cls-1{fill:#b3aa9e;}.cls-2{fill:#635b52;}.cls-3{fill:#7c7367;}.cls-4{fill:#9b9286;}</style></defs><g id="Capa_2" data-name="Capa 2"><g id="Capa_2-2" data-name="Capa 2"><path class="cls-1" d="M6.38,475.25c1.87,4.85,6.94,12.63,17,28,20.55,31.39,31.07,47.3,43,58,13.42,12,25.69,18.26,39,25,26.59,13.48,32.85,10.21,61,25,19.24,10.12,28.86,15.17,36,22,8.87,8.49,15.68,18.4,29,21a35.42,35.42,0,0,0,13,0c43.9-7.12,63-15,63-15,25.54-10.52,52.82-16.2,79-25,41.6-14,72.48-22.76,112-34,74.1-21.08,119.61-34,182-44,41.69-6.66,75.52-9.54,122-29,30.39-12.72,48.47-25.11,54-29a255.35,255.35,0,0,0,73-79c11-18.94,2.56-10.4,35-97,11.41-30.46,17.31-44.47,18-67,.66-21.52-3.87-37-10-58-9.94-34-18.71-64-45-88-15.31-14-29.88-19.77-53-29-32.85-13.11-51.82-14.49-88-22-80.94-16.79-83.76-30.16-142-36-16.59-1.66-42.48-4.1-76,0-18,2.21-34.35,5.84-100,28-85.89,29-80.67,30.46-102,34-42.91,7.13-69.37,11.53-104,5-16.15-3-28.44-7.4-44-2-16.22,5.63-24.74,18-41,44-38.16,61.09-41.64,73.85-64,105-16.17,22.53-19.25,22.69-33,44a378.22,378.22,0,0,0-34,64c-10,24.54-10.19,32.91-22,54-10.68,19.07-13.1,16.78-18,29C-6.71,439.9,4.69,470.87,6.38,475.25Z"/></g><g id="Capa_3" data-name="Capa 3"><path class="cls-2" d="M907.38,75.25a53,53,0,0,1,5,14,57.59,57.59,0,0,1,1,8c.34,8.61-26.21,36.27-92,55,0,0-56.59,16.12-123,13-22.07-1-37.17-5.77-51-7a12.31,12.31,0,0,1-4-1c-7.46-3.28-9.52-13.33-10-15-6-21-79.2-23.39-96-24-12-.43-25-.29-51,0-20.12.23-36.72.66-48,1,3.41.83,8.66,2.16,15,4,31.62,9.19,49.93,14.51,64,29,3.83,3.95,8.89,12,19,28,7.59,12,8.3,14.35,15,24,4.11,5.92,5.39,7.28,7,11,3.79,8.75,3.38,16.63,3,24-.33,6.32-.81,14.21-5,23-.93,2-2.65,5.24-9,13-13,15.85-19,18.43-32,34-5.63,6.77-5.22,7.17-9,11-9.45,9.59-18.77,13.84-25,17-13.52,6.86-25.31,16.7-38,25-35,22.92-34.42,22.7-40,26-20.64,12.21-32.59,17.36-45,21a166.83,166.83,0,0,1-17,4c-17.89,3.27-27.7,2.11-63,1-39.3-1.23-30.55.09-51-1-12.42-.66-18.32-1.29-28,0-15.12,2-26.15,7-35,11a162.25,162.25,0,0,0-34,21c-2.58-.89-6.79-2.32-12-4-28.45-9.16-42.68-13.75-57-17-8.59-1.95-16.54-3.41-24-10a35,35,0,0,1-8-10c-6.8-12.82-2.94-25.58-5.2-26-1.37-.25-2,4.55-7.68,12.37-2.62,3.61-4.35,5.17-6.86,9.48a63.12,63.12,0,0,0-3.46,7.15c-13.46,33.3,0,68,0,68,1.9,4.9,7,12.67,17,28,20.55,31.39,31.07,47.3,43,58,13.42,12,25.69,18.26,39,25,26.58,13.48,32.85,10.21,61,25,19.24,10.11,28.86,15.17,36,22,8.87,8.49,15.67,18.4,29,21a35.42,35.42,0,0,0,13,0c43.89-7.13,63-15,63-15,25.53-10.52,52.81-16.2,79-25,41.59-14,72.48-22.76,112-34,74.1-21.08,119.61-34,182-44,41.69-6.67,75.51-9.54,122-29,30.39-12.72,48.47-25.11,54-29a255.35,255.35,0,0,0,73-79c11-18.94,2.55-10.4,35-97,11.41-30.46,17.31-44.48,18-67,.7-23.13-4.54-40.46-10-58-9.37-30.07-17.55-62.13-45-88a128.53,128.53,0,0,0-14.8-12Z"/></g><g id="Capa_5" data-name="Capa 5"><path class="cls-3" d="M450.63,123.79c-6.34-1.84-11.59-3.17-15-4,11.27-.34,27.87-.77,48-1,26-.29,39-.44,51,0,16.8.61,90,3,96,24,.48,1.66,2.54,11.72,10,15a12.25,12.25,0,0,0,4,1c13.83,1.23,28.93,6,51,7,66.41,3.12,123-13,123-13l4.75-1.54c10.33-2.49,21-5.46,32-9q4.57-1.47,9-3c-2,7.42-6.6,20.23-18,31-4.94,4.67-10.9,10.3-20,12-3.48.65-5.09.29-19,0-10.64-.22-16-.33-16,0-.11,1.05,29.54,6.42,60,8,20.41,1.06,30.61,1.59,39,1,7.2-.51,8.07-1,10,0,13.73,6.86-3.71,43.16,1,87,.31,2.84,1.07,9.09-2,11-7.35,4.59-26.38-22.15-35-18-6.84,3.3,1.37,22-1,50-2.78,32.9-18.3,56.89-25,67a153.57,153.57,0,0,1-37,39c-7.74,5.65-23.75,17.1-47,23-20.86,5.29-25.27.47-43,8-12.87,5.47-24.69,10.5-31,22-2.2,4-4.43,10.1-11,16a41.44,41.44,0,0,1-11,7c-17.89,8.2-38.17,10.68-41,11a245.84,245.84,0,0,1-43,1c-19.8-1-23-3.08-42-5a70.1,70.1,0,0,1-14-3c-4.41-1.41-6.62-2.12-7-3-3.19-7.33,32.29-33.84,38-45a69.09,69.09,0,0,0,3-8c1.67-5,1.69-6.34,1-7-1.11-1.07-4.2-.59-6,0h0c-3.27,1.08-5.91,2-6,2a107.12,107.12,0,0,0-15,7c-11.57,6.58-21,13.66-30,19a140.54,140.54,0,0,1-36,15c-16.42,4.25-24.63,6.37-34,6-3.18-.12-7.46-.5-8,1-.92,2.57,10.57,6.69,22,18,6.87,6.8,13.53,13.38,14,23,.58,11.74-8.43,20.48-10,22-3.76,3.65-7.08,5.07-16,9-15.3,6.74-22.95,10.1-27,12-13.29,6.23-23.66,11.09-34,21-6.69,6.41-14.81,16.33-17,19-5.72,7-5.88,7.85-8,10-8.35,8.51-18.31,7.79-34.82,10.6-24.84,4.24-32.44,11-63,15a37.54,37.54,0,0,1-13,0c-13.33-2.6-20.13-12.51-29-21-7.14-6.83-16.76-11.89-36-22-28.15-14.79-34.42-11.52-61-25-13.31-6.74-25.58-13-39-25-25.24-22.64-24.52-38.94-43-58-6.56-6.76-12-10.24-17-28h0c-7.82-27.8-4.73-56.29,0-68A63.18,63.18,0,0,1,10,399.7c2.51-4.31,4.24-5.87,6.86-9.48,5.67-7.82,6.31-12.62,7.68-12.37,2.26.42-1.6,13.18,5.2,26a35,35,0,0,0,8,10c7.46,6.59,15.41,8,24,10,13.48,3.06,36.11,8.2,57,17,6.52,2.75,8.18,3.88,12,4,12.51.41,16.47-10.92,34-21a86.21,86.21,0,0,1,35-11,256.36,256.36,0,0,1,28,0c1.55.09,6,.36,12.08.46,5.19.08,9,0,10.31,0,8.85-.17,17.39.2,28.61.57,45.38,1.52,55,.41,63-1a130.22,130.22,0,0,0,13.87-3.06c18-5.06,32.34-13.51,45-21,5.57-3.3,5-3.08,40-26,12.69-8.3,24.47-18.14,38-25,6.23-3.16,15.55-7.41,25-17,3.77-3.83,3.37-4.23,9-11,13-15.57,19-18.15,32-34,6.34-7.76,8.06-11,9-13,4.19-8.79,4.67-16.69,5-23,.38-7.37.79-15.25-3-24-1.61-3.72-2.89-5.08-7-11-6.7-9.65-7.41-12-15-24-10.11-16-15.17-24-19-28C500.55,138.3,482.25,133,450.63,123.79Z"/></g><g id="Capa_4" data-name="Capa 4"><path class="cls-4" d="M278.19,414c-17.1-.51-22.22-.69-28.62-.57-1.32,0-5.13.09-10.31,0-2.85,0-6.3-.15-12.07-.46-12.42-.66-18.33-1.29-28,0-15.13,2-26.16,7-35,11a162,162,0,0,0-34,21c-2.59-.89-6.79-2.32-12-4-28.45-9.16-42.68-13.75-57-17-8.6-1.95-16.54-3.4-24-10a35,35,0,0,1-8-10c-6.81-12.82-2.94-25.58-5.21-26-1.37-.25-2,4.55-7.67,12.37-2.62,3.62-4.35,5.17-6.86,9.48A62.15,62.15,0,0,0,6,407c-13.46,33.3,0,68,0,68,1.9,4.9,7,12.67,17,28,20.55,31.39,31.07,47.3,43,58,13.42,12,25.7,18.26,39,25,26.59,13.48,32.86,10.21,61,25,19.24,10.11,28.86,15.17,36,22,8.88,8.49,15.68,18.4,29,21,3.8.74,6.89.63,13,0a285.3,285.3,0,0,0,42.4-7.77c.67-1.44,5.33-11.53,6-13,23.84-51.64,35.76-77.46,37-80,12.65-25.94,14.95-28.62,19-41a161.33,161.33,0,0,0,8-44c.58-14.64.92-27.82-7-41a51.87,51.87,0,0,0-10-12h-7C320.9,415.22,311.13,415,278.19,414Z"/></g></g></svg>